PathFileType	4	(X/Y/Z)	/Users/giacomo/dev/rowing-video-analysis/sports2d_app/runs/gb8_20260203_210816/sports2d/input_Sports2D/input_Sports2D_px_person00.trc
DataRate	CameraRate	NumFrames	NumMarkers	Units	OrigDataRate	OrigDataStartFrame	OrigNumFrames
50.0	50.0	4	133	m	50.0	239	638
Frame#	Time	RHip			RKnee			RAnkle			RBigToe			RSmallToe			RHeel			LHip			LKnee			LAnkle			LBigToe			LSmallToe			LHeel			Nose			REye			LEye			REar			LEar			RShoulder			RElbow			RWrist			RThumb1			RThumb			RThumb3			RThumb4			RIndex			RIndex2			RIndex3			RIndex4			RMiddle1			RMiddle2			RMiddle3			RMiddle4			RRing1			RRing2			RRing3			RRing4			RPinky			RPinky2			RPinky3			RPinky4			LShoulder			LElbow			LWrist			LThumb1			LThumb			LThumb3			LThumb4			LIndex			LIndex2			LIndex3			LIndex4			LMiddle1			LMiddle2			LMiddle3			LMiddle4			LRing1			LRing2			LRing3			LRing4			LPinky			LPinky2			LPinky3			LPinky4			Jaw1			Jaw2			Jaw3			Jaw4			Jaw5			Jaw6			Jaw7			Jaw8			Jaw9			Jaw10			Jaw11			Jaw12			Jaw13			Jaw14			Jaw15			Jaw16			Jaw17			EyebrowR1			EyebrowR2			EyebrowR3			EyebrowR4			EyebrowR5			EyebrowL1			EyebrowL2			EyebrowL3			EyebrowL4			EyebrowL5			Nose1			Nose2			Nose3			Nose4			Nose5			Nose6			Nose7			Nose8			Nose9			REye1			REye2			REye3			REye4			REye5			REye6			LEye1			LEye2			LEye3			LEye4			LEye5			LEye6			Mouth1			Mouth2			Mouth3			Mouth4			Mouth5			Mouth6			Mouth7			Mouth8			Mouth9			Mouth10			Mouth11			Mouth12			Mouth13			Mouth14			Mouth15			Mouth16			Mouth17			Mouth18			Mouth19			Mouth20			Hip			Neck			
		X1	Y1	Z1	X2	Y2	Z2	X3	Y3	Z3	X4	Y4	Z4	X5	Y5	Z5	X6	Y6	Z6	X7	Y7	Z7	X8	Y8	Z8	X9	Y9	Z9	X10	Y10	Z10	X11	Y11	Z11	X12	Y12	Z12	X13	Y13	Z13	X14	Y14	Z14	X15	Y15	Z15	X16	Y16	Z16	X17	Y17	Z17	X18	Y18	Z18	X19	Y19	Z19	X20	Y20	Z20	X21	Y21	Z21	X22	Y22	Z22	X23	Y23	Z23	X24	Y24	Z24	X25	Y25	Z25	X26	Y26	Z26	X27	Y27	Z27	X28	Y28	Z28	X29	Y29	Z29	X30	Y30	Z30	X31	Y31	Z31	X32	Y32	Z32	X33	Y33	Z33	X34	Y34	Z34	X35	Y35	Z35	X36	Y36	Z36	X37	Y37	Z37	X38	Y38	Z38	X39	Y39	Z39	X40	Y40	Z40	X41	Y41	Z41	X42	Y42	Z42	X43	Y43	Z43	X44	Y44	Z44	X45	Y45	Z45	X46	Y46	Z46	X47	Y47	Z47	X48	Y48	Z48	X49	Y49	Z49	X50	Y50	Z50	X51	Y51	Z51	X52	Y52	Z52	X53	Y53	Z53	X54	Y54	Z54	X55	Y55	Z55	X56	Y56	Z56	X57	Y57	Z57	X58	Y58	Z58	X59	Y59	Z59	X60	Y60	Z60	X61	Y61	Z61	X62	Y62	Z62	X63	Y63	Z63	X64	Y64	Z64	X65	Y65	Z65	X66	Y66	Z66	X67	Y67	Z67	X68	Y68	Z68	X69	Y69	Z69	X70	Y70	Z70	X71	Y71	Z71	X72	Y72	Z72	X73	Y73	Z73	X74	Y74	Z74	X75	Y75	Z75	X76	Y76	Z76	X77	Y77	Z77	X78	Y78	Z78	X79	Y79	Z79	X80	Y80	Z80	X81	Y81	Z81	X82	Y82	Z82	X83	Y83	Z83	X84	Y84	Z84	X85	Y85	Z85	X86	Y86	Z86	X87	Y87	Z87	X88	Y88	Z88	X89	Y89	Z89	X90	Y90	Z90	X91	Y91	Z91	X92	Y92	Z92	X93	Y93	Z93	X94	Y94	Z94	X95	Y95	Z95	X96	Y96	Z96	X97	Y97	Z97	X98	Y98	Z98	X99	Y99	Z99	X100	Y100	Z100	X101	Y101	Z101	X102	Y102	Z102	X103	Y103	Z103	X104	Y104	Z104	X105	Y105	Z105	X106	Y106	Z106	X107	Y107	Z107	X108	Y108	Z108	X109	Y109	Z109	X110	Y110	Z110	X111	Y111	Z111	X112	Y112	Z112	X113	Y113	Z113	X114	Y114	Z114	X115	Y115	Z115	X116	Y116	Z116	X117	Y117	Z117	X118	Y118	Z118	X119	Y119	Z119	X120	Y120	Z120	X121	Y121	Z121	X122	Y122	Z122	X123	Y123	Z123	X124	Y124	Z124	X125	Y125	Z125	X126	Y126	Z126	X127	Y127	Z127	X128	Y128	Z128	X129	Y129	Z129	X130	Y130	Z130	X131	Y131	Z131	X132	Y132	Z132	X133	Y133	Z133
239	4.787503924646781	409.0841112960826	657.3464626769235	0.0	606.3493911427435	680.1316508164459	0.0	667.9920227925693	834.636093688641	0.0	641.1099884653433	887.8626696262554	0.0	635.6338261936304	877.9951549893702	0.0	586.3166901583486	872.6031708341528	0.0	465.7414595078999	637.5111846425748	0.0	654.3745155532517	656.2190295566818	0.0	674.0956344291544	828.1258464771201	0.0	819.0747205863742	845.9765789488722	0.0	816.3920086111476	848.1821870227101	0.0	655.6942507058217	857.3275162261828	0.0	470.39511261164307	348.8022236169842	0.0	456.89223906585613	330.2756041958713	0.0	465.34357178676834	329.75710784498955	0.0	406.0893525415278	337.68342939505277	0.0	417.7573446152726	339.5333894189001	0.0	361.9972981929727	431.8478649862177	0.0	381.83735870444764	581.548357238705	0.0	506.9561175755871	638.3066255369793	0.0	527.9904319165228	632.369140688932	0.0	539.1764208193146	631.2259155021682	0.0	549.386964824907	629.5017887410887	0.0	561.9198385358369	632.0842551296156	0.0	546.3192127824103	614.3788012769021	0.0	562.3902215245059	617.0812134690656	0.0	569.336399073928	624.9971095917788	0.0	573.0811024382442	636.0782999661477	0.0	546.5581595558981	614.5644575993376	0.0	563.4961703159553	620.3320767718401	0.0	569.244911979107	629.4662577833765	0.0	572.0014879156332	640.5498916907763	0.0	545.7240366449579	619.0177388412782	0.0	562.3339881383756	624.4663842126841	0.0	567.3105804406118	634.1209838420958	0.0	569.7578412234288	643.5251433328918	0.0	544.1391435338306	626.8471620533226	0.0	557.4883204130282	630.2180722909429	0.0	563.3740084163911	636.8247503344426	0.0	564.9592531276	644.5191654121018	0.0	427.73900109253486	438.0055398711588	0.0	485.255636044628	554.6684921729026	0.0	605.6254936322537	614.2218581730506	0.0	624.2837968490184	619.7294867004935	0.0	625.8345299267282	624.7404848164392	0.0	635.2521833804466	630.1298486757715	0.0	645.9212755945266	638.5477476551737	0.0	640.3167838327034	608.5982970915502	0.0	652.7351972766279	619.5928367995576	0.0	653.6342385361916	630.3899449200925	0.0	653.6279183477511	640.5395324392747	0.0	646.4008654942859	606.7677321156144	0.0	656.8175566605918	618.2384197840527	0.0	656.9186883662815	630.1933013570704	0.0	655.6222272547186	640.9304465551653	0.0	651.9659246653066	606.5393736068168	0.0	661.3543105195849	616.0720013238192	0.0	661.2293886043433	628.03753182349	0.0	658.4158415840265	638.842505240543	0.0	657.456365364119	610.7837897043561	0.0	663.8512629963443	613.9273066132872	0.0	663.5594777691954	624.5586044782239	0.0	662.1397419516527	632.7365902471945	0.0	417.2767227563363	324.6206632565882	0.0	417.54587399081896	334.45774683523325	0.0	419.3487569001316	344.2672790168601	0.0	421.79684303462255	353.54955386664204	0.0	424.92498786482486	362.68962488366077	0.0	430.97170768697265	369.1997746317871	0.0	437.87079019357077	375.05669165972273	0.0	446.4479750590922	380.13875075499806	0.0	454.4687384078812	382.78732131972544	0.0	459.7495600629722	381.44359859476987	0.0	461.6444815158846	376.0361763624227	0.0	461.37721726086465	369.24480867618314	0.0	461.433802946052	362.7211268261814	0.0	460.7899828557844	353.61663264053726	0.0	462.34038393487634	343.65405235983246	0.0	462.76294435195683	334.2996734126405	0.0	463.7209691291795	324.40880033031135	0.0	448.7211274858038	321.0738844634843	0.0	453.54392977394923	319.44414642719926	0.0	457.85428054374876	318.3592352260271	0.0	462.6249227694572	318.8214615586779	0.0	465.4010597147713	320.0472200438239	0.0	469.0955313611904	319.785011161298	0.0	469.77607523403066	319.5387347988532	0.0	470.12532138304124	318.95628913880375	0.0	470.5214258218516	319.59664571918245	0.0	470.24291055385777	320.3618819886294	0.0	466.79044354027985	328.6887096584165	0.0	469.3659569356652	335.1408053904344	0.0	472.29112156179207	340.37804205984975	0.0	473.66714063690773	344.7116272933045	0.0	464.07247080186585	349.0829553159494	0.0	465.3647744348624	350.7829921293391	0.0	467.3999139379023	351.12988216058426	0.0	469.7368131555446	350.00336739983373	0.0	471.2962293221321	349.10079635190846	0.0	452.84725361001	328.6860798141352	0.0	455.4379382602739	326.9132777380818	0.0	458.1674229969794	326.63573909315727	0.0	459.6462761482853	329.03671130317775	0.0	457.95669773384907	330.17718979726857	0.0	455.2452970862688	329.80873768456115	0.0	466.41190697759265	328.0039480258949	0.0	467.6411538748348	327.01304964637785	0.0	468.8351172113126	327.01900526599275	0.0	468.959401926266	327.2344970242134	0.0	467.9899391475664	328.3237637599513	0.0	466.9000889210021	328.27450145788043	0.0	456.30087718393276	361.4148840540667	0.0	462.5318182735381	360.26657049683354	0.0	467.850719504764	358.5192491095545	0.0	467.1121954645087	359.3034639175473	0.0	468.1569301101732	359.93549428119627	0.0	467.71232277701665	361.24123089921983	0.0	466.0083054749904	362.70984118773504	0.0	466.4953301842412	366.1659949149212	0.0	466.30639780746975	368.0790815972645	0.0	464.8267070163939	369.22739097722183	0.0	462.21093032309534	368.3063665690419	0.0	460.087966810287	365.37581122913247	0.0	457.4488929980819	361.2642304392717	0.0	462.6962626666444	361.318157185656	0.0	465.41491766125944	361.47869472892853	0.0	466.53098682653626	362.0241391530913	0.0	466.36767195509975	362.6605017262809	0.0	466.0144486381818	364.5896579647692	0.0	464.6356330264744	364.5280341468151	0.0	461.70303708236605	364.318400029828	0.0	437.41359917622947	647.5473759914854	0.0	394.58060340012145	434.9327935608676	0.0
240	4.807535321821035	405.53924467806377	654.9845275552716	0.0	603.3530584704754	678.7223290030288	0.0	663.9139984503682	833.5396968532244	0.0	636.3367330113764	882.3663336502519	0.0	638.8738460557163	874.6302577781852	0.0	576.8578983918752	870.36554504367	0.0	462.9679911373573	635.3963780053351	0.0	651.7160286673709	648.0156375177427	0.0	667.5465069013204	829.1375726475725	0.0	794.8737579611226	851.2782321865412	0.0	795.8659895922287	851.0003284450513	0.0	651.7083310163645	857.5705324456271	0.0	470.3325216075734	347.51042054989205	0.0	456.82639564638475	328.7596409159775	0.0	465.401504269639	328.312065084065	0.0	405.8467394988443	336.5891548721302	0.0	417.6438656084213	338.06532591595845	0.0	363.41704597656684	429.1486873980314	0.0	384.9761627574955	578.6818629275159	0.0	509.57708332289366	637.2456178636677	0.0	530.9250286818432	632.2685340615039	0.0	542.4108544660462	632.4255851360123	0.0	552.7878956103473	630.5100088890867	0.0	564.4746072346074	633.236033733662	0.0	549.1681972018425	614.4863098945059	0.0	565.1056957864905	617.691060481815	0.0	571.4248219747581	626.3145555644038	0.0	574.7966361269329	637.3457725604151	0.0	549.3255768092962	614.6223729033544	0.0	566.0307320632437	620.8532324539872	0.0	571.2794634531879	630.5085477330254	0.0	573.4995705431292	641.77121424292	0.0	548.286601333282	618.9881548711561	0.0	565.0037558415568	624.8225463545095	0.0	569.3968290751563	635.0086827454872	0.0	571.2258088842414	644.6506454105537	0.0	546.9613041136593	626.3942501917156	0.0	560.2357867113019	630.3536453987132	0.0	565.6481401439619	637.2897184286761	0.0	566.7961202823501	645.3285001867337	0.0	427.1410021715226	436.1189471708915	0.0	487.30517706572965	553.2178061215924	0.0	606.0323326098086	613.6589307847527	0.0	625.1508876262261	619.4377278823016	0.0	626.8331001965566	624.6516425654407	0.0	635.9211319694704	630.3329895528404	0.0	646.1352107341572	639.0684216802282	0.0	641.3221977814919	608.5328521083792	0.0	652.9752297665124	620.136954893433	0.0	653.9527143138426	631.2566004654564	0.0	653.8638316172608	641.1044199262298	0.0	647.6325784220347	606.7263858019248	0.0	657.3450371582296	619.042794927147	0.0	657.4027953227164	630.9655846249543	0.0	655.8958642504047	641.5092398785116	0.0	653.3158269682749	606.5378262269033	0.0	661.9621425308433	617.0031193553618	0.0	661.7487970680451	628.8420812457258	0.0	658.7810836840694	639.514758138954	0.0	658.844088313398	610.9688837609476	0.0	664.8186004699057	614.55316494491	0.0	664.2784904869152	625.216301691884	0.0	662.6506023751	632.7789362223805	0.0	417.1183975491132	323.4041872735622	0.0	417.31555326557935	333.1033244231923	0.0	419.14922592889627	342.90293273073183	0.0	421.6545123216019	352.14163146108433	0.0	424.75075253446164	361.3419808186958	0.0	430.98787949198277	368.05577758413847	0.0	438.08118283100134	373.7944461530081	0.0	446.81617574736276	378.92014298704225	0.0	454.6734744774768	381.4746402629715	0.0	459.9152103392987	380.1879689385439	0.0	461.7642313610874	374.57813208159126	0.0	461.5223212163105	367.8020889137596	0.0	461.27843086997234	361.11936884091756	0.0	461.2417747756976	352.1187631591341	0.0	462.5644195790675	341.887142072518	0.0	463.012989846161	332.57798061677835	0.0	463.81011756164474	322.7652662176651	0.0	448.6370948042559	319.3699197829572	0.0	453.37084523538664	318.13131024306387	0.0	457.82317578287325	316.89287145067175	0.0	462.63545025849584	317.21421621991544	0.0	465.4814406592338	318.554509959205	0.0	469.2429356100462	318.25402674872953	0.0	470.0619845370028	317.77331854799115	0.0	470.3612831731502	317.367053303476	0.0	470.68780994844064	317.73851991009207	0.0	470.5779315454087	318.8551621924512	0.0	466.8507264217749	327.2952944106441	0.0	469.46359654862323	333.82962056033165	0.0	472.36855361449307	339.15850073151654	0.0	473.9845570641865	343.5899737260053	0.0	464.1279852619739	347.7694527552461	0.0	465.44191496751966	349.35129010657386	0.0	467.47654134066147	349.7882928779509	0.0	469.74150359110655	348.84072215171943	0.0	471.4048523370688	347.7095084398572	0.0	452.8747669607012	327.0953962730527	0.0	455.4453822488168	325.57020502814015	0.0	458.3832457269484	325.20008904837675	0.0	459.6164733773852	327.5859733241947	0.0	458.0744519314258	328.5951786818552	0.0	455.2896171546341	328.29711484545874	0.0	466.45016826481833	326.41340588150973	0.0	467.9693116972421	325.3443464355993	0.0	469.04012790407376	325.35720393133744	0.0	469.1402796056669	325.72103326500485	0.0	468.2591072304987	326.86045504148024	0.0	467.2824644447897	326.84848451441496	0.0	456.40077176525386	359.98328808221964	0.0	462.4577232925431	358.89971905226344	0.0	467.7528859861021	357.15871713885065	0.0	467.2621510114353	357.8187618034098	0.0	468.19596887818483	358.67705273736755	0.0	468.0600931848059	359.8835611087042	0.0	466.23881705461105	361.33597166776764	0.0	466.77694247909704	365.03637078491766	0.0	466.717313973896	366.7264552736751	0.0	464.9822473810108	368.0454389073431	0.0	462.2851914344179	367.04846728922405	0.0	460.2935425208497	364.12838676225425	0.0	457.40577009097365	359.88472943928434	0.0	462.70825304138276	360.04560168432903	0.0	465.4907463789316	360.0881093586555	0.0	466.6050890648037	360.6353506518441	0.0	466.5842657245223	361.19455707955206	0.0	466.2394602569082	363.3137810459071	0.0	464.90124798867913	363.1623471993293	0.0	461.79450637679986	362.877236039617	0.0	434.255907702127	645.1583281524197	0.0	394.93925337671834	432.63682534392944	0.0
241	4.82756671899529	402.48076687267115	652.7979986999427	0.0	601.4459673932407	677.5069648436298	0.0	657.8221232335021	832.9959001713986	0.0	632.9756793784215	882.4507880076669	0.0	641.2332192362427	873.663179667976	0.0	571.6168825287554	872.6739975838494	0.0	460.3144798974477	633.8207463174867	0.0	648.6690781448979	639.6341824891089	0.0	661.1447590791474	830.3522400151985	0.0	762.6595772838032	855.5531747382194	0.0	768.0758113889816	854.1638837654508	0.0	645.6425266635326	861.7496567672358	0.0	470.80034507132126	346.255942852201	0.0	457.05911652569944	327.3829264774393	0.0	465.9108708975301	327.0885948893882	0.0	405.7614462570182	335.4237011106552	0.0	418.09235140899426	336.6777838541401	0.0	364.8010073781005	426.88747084459015	0.0	388.75185491970325	575.9100142298589	0.0	512.7107178270198	635.9472042653532	0.0	534.1752542898654	631.6926658661512	0.0	545.8748234173557	633.0004748091019	0.0	556.801108735238	631.2370093220774	0.0	567.5084015622482	634.3556290426055	0.0	552.7200876489691	614.7356963098368	0.0	568.4499520483157	618.7528117185068	0.0	574.3589526811926	628.0971683813646	0.0	577.3660279505386	638.8928821468357	0.0	552.8904082268808	615.2951307804507	0.0	569.1907338312377	621.9713310661073	0.0	574.237006685203	632.0754496633795	0.0	576.1869658146645	643.424267365744	0.0	551.6127253235028	619.618634527722	0.0	568.1651946710049	625.7531417012888	0.0	572.3355418862496	636.5123725590396	0.0	573.7795802925776	646.4336648266774	0.0	550.4512083778936	626.340219384338	0.0	563.4565370323515	631.1318289634457	0.0	568.4785206099783	638.3833442002613	0.0	569.5954624411987	646.6897196512481	0.0	426.7544708464963	434.49640282033147	0.0	489.48443061203767	551.7261686381087	0.0	605.3907688538189	613.1684036442099	0.0	625.7208809268822	619.3854136535191	0.0	627.7248103038789	624.606718459297	0.0	636.6663033340157	630.4833407953028	0.0	646.1708412349142	639.0839870875125	0.0	642.6521364177999	608.4894593698735	0.0	653.3068402622409	620.2693714959531	0.0	654.2822383482217	631.8105892467885	0.0	653.9851597704019	641.3881937822385	0.0	649.195270964945	607.0009064539227	0.0	658.3043389526752	619.8451595459029	0.0	658.3422369287407	631.6367703365746	0.0	656.3901077333562	641.9060752717362	0.0	654.8091347010325	607.1374810540659	0.0	662.8124566502377	618.2951012757363	0.0	662.5109909312451	629.9547912196487	0.0	659.434481836266	640.2331360455212	0.0	660.2171265578291	611.3862293557925	0.0	665.7874175507263	616.2941830242181	0.0	665.0172124867972	626.6331213455305	0.0	663.2132246868877	633.2823910771754	0.0	417.30135895244956	322.27592519319484	0.0	417.3907440714661	331.76912300483946	0.0	418.99233785161084	341.61902164065486	0.0	421.54135220585937	350.81688725818003	0.0	424.7937484514686	359.89811526921216	0.0	431.2434017094189	366.91305579830026	0.0	438.6501319423561	372.51129911747995	0.0	447.6442726406757	377.73396048165347	0.0	455.29814848308126	380.24856594280493	0.0	460.5082317379434	378.9577443923668	0.0	462.09043442130945	373.0105986889373	0.0	462.0463508924226	366.2345340233561	0.0	461.3850450478368	359.38389691979665	0.0	461.93736510091696	350.59619955957345	0.0	463.297901768726	340.13410926696247	0.0	463.6568970098201	330.6659906876276	0.0	464.26550269968897	320.9193747786623	0.0	448.6439204930396	317.8789129665602	0.0	453.5766078144444	316.8307224672506	0.0	458.1428589109782	315.50361310190186	0.0	463.02729301497936	315.67154571076634	0.0	465.9288373682151	317.0876156446294	0.0	469.94233167833505	316.8464666269996	0.0	470.78973027256825	316.0075289532905	0.0	470.99390539660845	315.80363285058036	0.0	471.299400402923	315.9339676551174	0.0	471.29436284457165	317.50668658412775	0.0	467.31497813066477	325.9237042460498	0.0	469.90515349468836	332.58823630389105	0.0	472.8938945818011	337.98352777020244	0.0	474.70155050784336	342.5438007333132	0.0	464.55218412181256	346.48857586214433	0.0	466.0133513701665	347.8836581589113	0.0	467.9886381756485	348.4159163533214	0.0	470.1211912873057	347.6262274204727	0.0	471.88292632007705	346.33150849098126	0.0	453.13730708078174	325.69093936032084	0.0	455.9434193688812	324.3123212559361	0.0	458.95991058270437	323.7837088414364	0.0	460.05091350800126	326.1160466561987	0.0	458.59734712859586	327.084557557666	0.0	455.6600997859339	326.9235434033397	0.0	466.8971118991772	324.90051462870446	0.0	468.6047301210745	323.7150795495996	0.0	469.6249439604309	323.7342809355039	0.0	469.50020402839453	324.3249619667337	0.0	468.98422637503575	325.389411163911	0.0	468.05376026140414	325.47089829150167	0.0	456.8143807758899	358.46802656662624	0.0	462.5669301050272	357.4154352249061	0.0	467.8020416946851	355.7658915079847	0.0	467.8412868617684	356.1941697361383	0.0	468.66970799991515	357.2191848809466	0.0	468.78688089002486	358.4340051397326	0.0	466.8284645326474	359.7736690451836	0.0	467.42687665603603	363.7419297704848	0.0	467.45363687699717	365.3787503354351	0.0	465.5779648874349	366.6974187841355	0.0	462.68911886785634	365.6707405114217	0.0	460.64932246717484	362.90752078629	0.0	457.49389310083956	358.40091220088	0.0	463.0043500381204	358.67994297389095	0.0	466.02825890508734	358.66443706768405	0.0	467.0496740453619	359.16350598249306	0.0	467.0701068400426	359.534888244814	0.0	466.81738524199466	361.84890930530753	0.0	465.56491440135596	361.5995008892072	0.0	462.24889697486634	361.2376371735678	0.0	431.401753025463	642.8777532998585	0.0	395.4880888761654	430.68281373524843	0.0
242	4.847598116169545	400.1069188991545	651.4344494168894	0.0	600.4712497351435	677.1059687380309	0.0	650.4233653273814	833.4899580445926	0.0	632.8833758368637	881.9896704928757	0.0	642.6808675028906	874.2276630870333	0.0	572.039992134003	876.4859337529645	0.0	458.19433959768895	633.3080790591001	0.0	645.7206651101765	632.8982787205878	0.0	654.9022767210478	831.4368416933169	0.0	727.8756447692466	855.3449133668004	0.0	738.1897182537101	855.0794214141292	0.0	638.7880025350121	865.4824525587641	0.0	471.7383514052705	345.40815003853174	0.0	457.5214413627487	326.4487300051924	0.0	466.6995100354671	326.30265949056184	0.0	405.83366801369084	334.38007473173644	0.0	419.1445497037795	335.5680265258701	0.0	365.77799528561434	425.77926246001437	0.0	393.49771301075356	573.9422004120646	0.0	516.4054401440926	634.8881103741037	0.0	537.8122430999546	630.9459666885589	0.0	549.5346907726964	633.2178559352704	0.0	561.0734184315071	632.050932254177	0.0	571.0472101573937	636.0144024653024	0.0	556.816653052263	615.7674820283692	0.0	572.2045202332658	620.6633874255909	0.0	577.9837452174983	630.477808777992	0.0	580.758806275259	640.806502043059	0.0	557.0798194973024	616.9189194079704	0.0	572.7894020194464	624.1456855381012	0.0	577.9854109307472	634.2883237776529	0.0	580.0721525070192	645.4679099405206	0.0	555.5525088071248	621.2510566712996	0.0	571.6583632624985	627.6853780760866	0.0	576.0337789382517	638.7714167036463	0.0	577.4977393584105	648.8211461016517	0.0	554.4292639644651	627.1943694663714	0.0	567.0077437717713	633.0189816457928	0.0	571.8507894157501	640.3903468269367	0.0	573.4337495761994	648.765632256428	0.0	426.39044104756516	433.3836270640636	0.0	491.5815055570783	550.5427971966221	0.0	603.3511698944942	612.887054704391	0.0	625.8594779194968	619.7885043189799	0.0	628.3776550416643	625.055950094007	0.0	637.2798393801506	630.947742970315	0.0	646.1219395713197	639.0004539289478	0.0	643.7471141296496	608.863627912995	0.0	653.685948857108	620.4195129128816	0.0	654.5485917037489	632.4307018348655	0.0	654.0418296121819	641.7580361994617	0.0	650.6340591117729	607.8295548145215	0.0	659.3815175182812	620.8611836618333	0.0	659.4448763668225	632.4590478920172	0.0	657.0745108102155	642.5580016137052	0.0	656.1602769917645	608.3438334884767	0.0	663.846508933017	619.8890445674884	0.0	663.5336700712188	631.3554601049682	0.0	660.360766320336	641.1332524214215	0.0	661.5278770508172	611.9969126088572	0.0	666.824108497854	618.71293016717	0.0	665.887049200398	628.3838007558048	0.0	663.978117488482	634.3341841261566	0.0	417.8713151906484	321.248864722929	0.0	417.82603791281883	330.5626314130804	0.0	419.0576541967295	340.538043252161	0.0	421.5276284200736	349.84242068412254	0.0	425.0176003625403	358.6313264626106	0.0	431.6567080535606	365.94197249368494	0.0	439.40233099305595	371.4779127931648	0.0	448.78633256702307	376.7903315247284	0.0	456.27069434752536	379.3016912636447	0.0	461.49672920589364	377.8962611270493	0.0	462.59401225968963	371.54921043128013	0.0	462.67182672019453	364.76672423934826	0.0	461.62055507053367	357.8240579922984	0.0	462.4809960694362	349.27998089978433	0.0	464.17253496998865	338.6138763282091	0.0	464.4009827173231	328.84870823516013	0.0	464.784767762366	319.09695029119695	0.0	448.83212645493506	316.8435491271711	0.0	454.1280169670441	315.6804194176319	0.0	458.81381024778227	314.35542834537677	0.0	463.7863379101898	314.4084445286831	0.0	466.6884449595135	315.81261732120464	0.0	471.0696433029064	315.68208390895074	0.0	471.7861718561037	314.48152613627803	0.0	471.94808869824675	314.4311067988887	0.0	472.23567072654964	314.40847774862254	0.0	472.2256434851431	316.3644824104296	0.0	468.01379148775396	324.6493638279927	0.0	470.6112211812034	331.56139188851637	0.0	473.7521319863944	337.02082558137187	0.0	475.6043125436355	341.66081265743736	0.0	465.24973269531347	345.3447711209834	0.0	466.89099997480594	346.63027707260585	0.0	468.7036467555716	347.2411286737107	0.0	470.7547967093108	346.49197746174093	0.0	472.52309135441044	345.1342331482658	0.0	453.6017506838879	324.6702580365469	0.0	456.79829854578395	323.29429038175664	0.0	459.7413472938257	322.52642486901345	0.0	460.8762198011298	324.81031781934786	0.0	459.42970997234784	325.90158956198405	0.0	456.2695043912544	325.86785804684047	0.0	467.6055759544623	323.6327179342863	0.0	469.361136586735	322.357625434114	0.0	470.4645510067223	322.3749008110674	0.0	469.99429123391076	323.1805360172986	0.0	469.9475486203682	324.0712790730276	0.0	468.97982300430664	324.3137751748566	0.0	457.333196049936	357.0363779024002	0.0	462.8438393931775	356.03420798172317	0.0	468.03213160278125	354.48196996828517	0.0	468.63800999727187	354.69016016831574	0.0	469.3974475351213	355.7812753674169	0.0	469.6791385050668	357.0317790169808	0.0	467.56752709980356	358.1278837338474	0.0	468.22721892783045	362.48720341202784	0.0	468.2874559554746	364.2310236336001	0.0	466.39204183134257	365.37122418322565	0.0	463.27471648581104	364.308359717832	0.0	461.0799066509556	361.82219162606754	0.0	457.67518667602945	356.98213852070296	0.0	463.5280625515152	357.3178390087668	0.0	466.81573109713395	357.3044842591759	0.0	467.67259673973143	357.7431067790109	0.0	467.6207554043534	357.84354727356975	0.0	467.55447672616	360.3516592734546	0.0	466.4072512297075	360.0572263443787	0.0	462.9128362630634	359.67011201304024	0.0	429.15571226291075	641.2442077192344	0.0	395.9065856994318	429.54697755639586	0.0
